<mxfile host="app.diagrams.net" agent="Mozilla/5.0 (Windows NT 10.0; Win64; x64) AppleWebKit/537.36 (KHTML, like Gecko) Chrome/136.0.0.0 Safari/537.36" version="26.3.0">
  <diagram name="Страница — 1" id="Ksy6itNjPM5Ci_08OtA7">
    <mxGraphModel dx="3412" dy="2048" grid="1" gridSize="10" guides="1" tooltips="1" connect="1" arrows="1" fold="1" page="0" pageScale="1" pageWidth="827" pageHeight="1169" math="0" shadow="0">
      <root>
        <mxCell id="0" />
        <mxCell id="1" parent="0" />
        <mxCell id="qtvRiWRwrgdOW_P1Fzzj-1" value="Управління інвестиціями" style="rounded=0;whiteSpace=wrap;html=1;" parent="1" vertex="1">
          <mxGeometry x="98" y="49" width="232" height="143" as="geometry" />
        </mxCell>
        <mxCell id="qtvRiWRwrgdOW_P1Fzzj-3" value="" style="endArrow=classic;html=1;rounded=0;fontSize=12;startSize=8;endSize=8;curved=1;entryX=0;entryY=1;entryDx=0;entryDy=0;" parent="1" edge="1">
          <mxGeometry width="50" height="50" relative="1" as="geometry">
            <mxPoint x="-77" y="166" as="sourcePoint" />
            <mxPoint x="98" y="166" as="targetPoint" />
          </mxGeometry>
        </mxCell>
        <mxCell id="qtvRiWRwrgdOW_P1Fzzj-4" value="" style="endArrow=classic;html=1;rounded=0;fontSize=12;startSize=8;endSize=8;curved=1;entryX=0;entryY=1;entryDx=0;entryDy=0;" parent="1" edge="1">
          <mxGeometry width="50" height="50" relative="1" as="geometry">
            <mxPoint x="-77" y="81" as="sourcePoint" />
            <mxPoint x="98" y="81" as="targetPoint" />
          </mxGeometry>
        </mxCell>
        <mxCell id="qtvRiWRwrgdOW_P1Fzzj-5" value="" style="endArrow=classic;html=1;rounded=0;fontSize=12;startSize=8;endSize=8;curved=1;entryX=0;entryY=1;entryDx=0;entryDy=0;" parent="1" edge="1">
          <mxGeometry width="50" height="50" relative="1" as="geometry">
            <mxPoint x="-79" y="120" as="sourcePoint" />
            <mxPoint x="96" y="120" as="targetPoint" />
          </mxGeometry>
        </mxCell>
        <mxCell id="qtvRiWRwrgdOW_P1Fzzj-6" value="" style="endArrow=classic;html=1;rounded=0;fontSize=12;startSize=8;endSize=8;curved=1;entryX=0;entryY=1;entryDx=0;entryDy=0;" parent="1" edge="1">
          <mxGeometry width="50" height="50" relative="1" as="geometry">
            <mxPoint x="330" y="84" as="sourcePoint" />
            <mxPoint x="505" y="84" as="targetPoint" />
          </mxGeometry>
        </mxCell>
        <mxCell id="qtvRiWRwrgdOW_P1Fzzj-7" value="" style="endArrow=classic;html=1;rounded=0;fontSize=12;startSize=8;endSize=8;curved=1;entryX=0;entryY=1;entryDx=0;entryDy=0;" parent="1" edge="1">
          <mxGeometry width="50" height="50" relative="1" as="geometry">
            <mxPoint x="330" y="120" as="sourcePoint" />
            <mxPoint x="505" y="120" as="targetPoint" />
          </mxGeometry>
        </mxCell>
        <mxCell id="qtvRiWRwrgdOW_P1Fzzj-8" value="" style="endArrow=classic;html=1;rounded=0;fontSize=12;startSize=8;endSize=8;curved=1;entryX=0;entryY=1;entryDx=0;entryDy=0;" parent="1" edge="1">
          <mxGeometry width="50" height="50" relative="1" as="geometry">
            <mxPoint x="330" y="156" as="sourcePoint" />
            <mxPoint x="505" y="156" as="targetPoint" />
          </mxGeometry>
        </mxCell>
        <mxCell id="qtvRiWRwrgdOW_P1Fzzj-10" value="" style="endArrow=classic;html=1;rounded=0;fontSize=12;startSize=8;endSize=8;curved=1;entryX=0.5;entryY=0;entryDx=0;entryDy=0;" parent="1" edge="1">
          <mxGeometry width="50" height="50" relative="1" as="geometry">
            <mxPoint x="176" y="-76" as="sourcePoint" />
            <mxPoint x="176" y="49" as="targetPoint" />
          </mxGeometry>
        </mxCell>
        <mxCell id="qtvRiWRwrgdOW_P1Fzzj-11" value="" style="endArrow=classic;html=1;rounded=0;fontSize=12;startSize=8;endSize=8;curved=1;entryX=0.5;entryY=0;entryDx=0;entryDy=0;" parent="1" edge="1">
          <mxGeometry width="50" height="50" relative="1" as="geometry">
            <mxPoint x="271" y="-79" as="sourcePoint" />
            <mxPoint x="271" y="46" as="targetPoint" />
          </mxGeometry>
        </mxCell>
        <mxCell id="qtvRiWRwrgdOW_P1Fzzj-12" value="" style="endArrow=classic;html=1;rounded=0;fontSize=12;startSize=8;endSize=8;curved=1;entryX=0.25;entryY=1;entryDx=0;entryDy=0;" parent="1" edge="1">
          <mxGeometry width="50" height="50" relative="1" as="geometry">
            <mxPoint x="110" y="293" as="sourcePoint" />
            <mxPoint x="110" y="192" as="targetPoint" />
          </mxGeometry>
        </mxCell>
        <mxCell id="qtvRiWRwrgdOW_P1Fzzj-15" value="Control" style="text;html=1;align=center;verticalAlign=middle;whiteSpace=wrap;rounded=0;" parent="1" vertex="1">
          <mxGeometry x="172" y="-141" width="60" height="30" as="geometry" />
        </mxCell>
        <mxCell id="qtvRiWRwrgdOW_P1Fzzj-17" value="Mechanism" style="text;html=1;align=center;verticalAlign=middle;whiteSpace=wrap;rounded=0;" parent="1" vertex="1">
          <mxGeometry x="189" y="358" width="60" height="30" as="geometry" />
        </mxCell>
        <mxCell id="qtvRiWRwrgdOW_P1Fzzj-18" value="Input" style="text;html=1;align=center;verticalAlign=middle;whiteSpace=wrap;rounded=0;" parent="1" vertex="1">
          <mxGeometry x="-54" y="7" width="60" height="30" as="geometry" />
        </mxCell>
        <mxCell id="qtvRiWRwrgdOW_P1Fzzj-19" value="Output" style="text;html=1;align=center;verticalAlign=middle;whiteSpace=wrap;rounded=0;" parent="1" vertex="1">
          <mxGeometry x="381" y="11" width="60" height="30" as="geometry" />
        </mxCell>
        <mxCell id="qtvRiWRwrgdOW_P1Fzzj-20" value="Котирування цінних паперів" style="text;html=1;align=center;verticalAlign=middle;whiteSpace=wrap;rounded=0;" parent="1" vertex="1">
          <mxGeometry x="-104" y="49" width="195" height="30" as="geometry" />
        </mxCell>
        <mxCell id="qtvRiWRwrgdOW_P1Fzzj-22" value="Новини з фінансових джерел" style="text;html=1;align=center;verticalAlign=middle;whiteSpace=wrap;rounded=0;" parent="1" vertex="1">
          <mxGeometry x="-104" y="91" width="195" height="30" as="geometry" />
        </mxCell>
        <mxCell id="qtvRiWRwrgdOW_P1Fzzj-23" value="Дані клієнта" style="text;html=1;align=center;verticalAlign=middle;whiteSpace=wrap;rounded=0;" parent="1" vertex="1">
          <mxGeometry x="-111" y="138" width="195" height="30" as="geometry" />
        </mxCell>
        <mxCell id="qtvRiWRwrgdOW_P1Fzzj-24" value="Інвестиційні рішення" style="text;html=1;align=center;verticalAlign=middle;whiteSpace=wrap;rounded=0;" parent="1" vertex="1">
          <mxGeometry x="314" y="57" width="184" height="30" as="geometry" />
        </mxCell>
        <mxCell id="qtvRiWRwrgdOW_P1Fzzj-25" value="Звіти" style="text;html=1;align=center;verticalAlign=middle;whiteSpace=wrap;rounded=0;" parent="1" vertex="1">
          <mxGeometry x="314" y="91" width="184" height="30" as="geometry" />
        </mxCell>
        <mxCell id="qtvRiWRwrgdOW_P1Fzzj-26" value="Портфелі клієнтів" style="text;html=1;align=center;verticalAlign=middle;whiteSpace=wrap;rounded=0;" parent="1" vertex="1">
          <mxGeometry x="314" y="125" width="184" height="30" as="geometry" />
        </mxCell>
        <mxCell id="qtvRiWRwrgdOW_P1Fzzj-27" value="Вимоги фінансових регуляторів" style="text;html=1;align=center;verticalAlign=middle;whiteSpace=wrap;rounded=0;rotation=-90;" parent="1" vertex="1">
          <mxGeometry x="64" y="-45" width="153" height="30" as="geometry" />
        </mxCell>
        <mxCell id="qtvRiWRwrgdOW_P1Fzzj-28" value="Інвестиційна стратегія компанії" style="text;html=1;align=center;verticalAlign=middle;whiteSpace=wrap;rounded=0;rotation=-90;" parent="1" vertex="1">
          <mxGeometry x="169" y="-42" width="155" height="30" as="geometry" />
        </mxCell>
        <mxCell id="qtvRiWRwrgdOW_P1Fzzj-29" value="Інвестиційні аналітики" style="text;html=1;align=center;verticalAlign=middle;whiteSpace=wrap;rounded=0;rotation=-90;" parent="1" vertex="1">
          <mxGeometry x="5" y="250" width="184" height="30" as="geometry" />
        </mxCell>
        <mxCell id="qtvRiWRwrgdOW_P1Fzzj-30" value="Програмне забезпечення" style="text;html=1;align=center;verticalAlign=middle;whiteSpace=wrap;rounded=0;rotation=-90;" parent="1" vertex="1">
          <mxGeometry x="40" y="260" width="184" height="30" as="geometry" />
        </mxCell>
        <mxCell id="qtvRiWRwrgdOW_P1Fzzj-32" value="База даних" style="text;html=1;align=center;verticalAlign=middle;whiteSpace=wrap;rounded=0;rotation=-90;" parent="1" vertex="1">
          <mxGeometry x="84" y="230" width="184" height="30" as="geometry" />
        </mxCell>
        <mxCell id="qtvRiWRwrgdOW_P1Fzzj-33" value="А0" style="text;html=1;align=center;verticalAlign=middle;whiteSpace=wrap;rounded=0;" parent="1" vertex="1">
          <mxGeometry x="94" y="162" width="60" height="30" as="geometry" />
        </mxCell>
        <mxCell id="qtvRiWRwrgdOW_P1Fzzj-34" value="Збір котирувань&amp;nbsp;" style="rounded=0;whiteSpace=wrap;html=1;" parent="1" vertex="1">
          <mxGeometry x="-240" y="550" width="233" height="137" as="geometry" />
        </mxCell>
        <mxCell id="rgsiSxx9pNVqM9AClZs8-1" value="" style="endArrow=classic;html=1;rounded=0;fontSize=12;startSize=8;endSize=8;curved=1;entryX=0.25;entryY=1;entryDx=0;entryDy=0;" edge="1" parent="1">
          <mxGeometry width="50" height="50" relative="1" as="geometry">
            <mxPoint x="150" y="293" as="sourcePoint" />
            <mxPoint x="150" y="192" as="targetPoint" />
          </mxGeometry>
        </mxCell>
        <mxCell id="rgsiSxx9pNVqM9AClZs8-2" value="" style="endArrow=classic;html=1;rounded=0;fontSize=12;startSize=8;endSize=8;curved=1;entryX=0.25;entryY=1;entryDx=0;entryDy=0;" edge="1" parent="1">
          <mxGeometry width="50" height="50" relative="1" as="geometry">
            <mxPoint x="189" y="293" as="sourcePoint" />
            <mxPoint x="189" y="192" as="targetPoint" />
          </mxGeometry>
        </mxCell>
        <mxCell id="rgsiSxx9pNVqM9AClZs8-3" value="" style="endArrow=classic;html=1;rounded=0;fontSize=12;startSize=8;endSize=8;curved=1;entryX=0.25;entryY=1;entryDx=0;entryDy=0;" edge="1" parent="1">
          <mxGeometry width="50" height="50" relative="1" as="geometry">
            <mxPoint x="280" y="293" as="sourcePoint" />
            <mxPoint x="280" y="192" as="targetPoint" />
          </mxGeometry>
        </mxCell>
        <mxCell id="rgsiSxx9pNVqM9AClZs8-4" value="" style="endArrow=classic;html=1;rounded=0;fontSize=12;startSize=8;endSize=8;curved=1;entryX=0.25;entryY=1;entryDx=0;entryDy=0;" edge="1" parent="1">
          <mxGeometry width="50" height="50" relative="1" as="geometry">
            <mxPoint x="323.33" y="293" as="sourcePoint" />
            <mxPoint x="323.33" y="192" as="targetPoint" />
          </mxGeometry>
        </mxCell>
        <mxCell id="rgsiSxx9pNVqM9AClZs8-5" value="" style="endArrow=classic;html=1;rounded=0;fontSize=12;startSize=8;endSize=8;curved=1;entryX=0.25;entryY=1;entryDx=0;entryDy=0;" edge="1" parent="1">
          <mxGeometry width="50" height="50" relative="1" as="geometry">
            <mxPoint x="232" y="293" as="sourcePoint" />
            <mxPoint x="232" y="192" as="targetPoint" />
          </mxGeometry>
        </mxCell>
        <mxCell id="rgsiSxx9pNVqM9AClZs8-6" value="Модуль аналізу новин" style="text;html=1;align=center;verticalAlign=middle;whiteSpace=wrap;rounded=0;rotation=-90;" vertex="1" parent="1">
          <mxGeometry x="141" y="250" width="146" height="30" as="geometry" />
        </mxCell>
        <mxCell id="rgsiSxx9pNVqM9AClZs8-7" value="Модуль виконання торгових стратегій" style="text;html=1;align=center;verticalAlign=middle;whiteSpace=wrap;rounded=0;rotation=-90;" vertex="1" parent="1">
          <mxGeometry x="185" y="240" width="155" height="30" as="geometry" />
        </mxCell>
        <mxCell id="rgsiSxx9pNVqM9AClZs8-9" value="Фільтраційний механізм вибору активів" style="text;html=1;align=center;verticalAlign=middle;whiteSpace=wrap;rounded=0;rotation=-90;" vertex="1" parent="1">
          <mxGeometry x="220" y="250" width="161" height="30" as="geometry" />
        </mxCell>
        <mxCell id="rgsiSxx9pNVqM9AClZs8-10" value="Аналіз новин і оцінка активів" style="rounded=0;whiteSpace=wrap;html=1;" vertex="1" parent="1">
          <mxGeometry x="81" y="680" width="233" height="137" as="geometry" />
        </mxCell>
        <mxCell id="rgsiSxx9pNVqM9AClZs8-11" value="Прийняття рішень на основі стратегії та виконання операцій" style="rounded=0;whiteSpace=wrap;html=1;" vertex="1" parent="1">
          <mxGeometry x="400" y="817" width="233" height="137" as="geometry" />
        </mxCell>
        <mxCell id="rgsiSxx9pNVqM9AClZs8-12" value="&amp;nbsp;Оновлення портфеля та збереження даних" style="rounded=0;whiteSpace=wrap;html=1;" vertex="1" parent="1">
          <mxGeometry x="720" y="954" width="233" height="137" as="geometry" />
        </mxCell>
        <mxCell id="rgsiSxx9pNVqM9AClZs8-13" value="Формування звітів" style="rounded=0;whiteSpace=wrap;html=1;" vertex="1" parent="1">
          <mxGeometry x="1040" y="1091" width="233" height="137" as="geometry" />
        </mxCell>
        <mxCell id="rgsiSxx9pNVqM9AClZs8-15" value="" style="endArrow=classic;html=1;rounded=0;fontSize=12;startSize=8;endSize=8;curved=0;exitX=1.005;exitY=0.908;exitDx=0;exitDy=0;exitPerimeter=0;" edge="1" parent="1" source="qtvRiWRwrgdOW_P1Fzzj-34">
          <mxGeometry width="50" height="50" relative="1" as="geometry">
            <mxPoint x="-370" y="850" as="sourcePoint" />
            <mxPoint x="80" y="710" as="targetPoint" />
            <Array as="points">
              <mxPoint x="40" y="674" />
              <mxPoint x="40" y="710" />
            </Array>
          </mxGeometry>
        </mxCell>
        <mxCell id="rgsiSxx9pNVqM9AClZs8-16" value="" style="endArrow=classic;html=1;rounded=0;fontSize=12;startSize=8;endSize=8;curved=0;entryX=0;entryY=0.5;entryDx=0;entryDy=0;exitX=1.005;exitY=0.908;exitDx=0;exitDy=0;exitPerimeter=0;" edge="1" parent="1">
          <mxGeometry width="50" height="50" relative="1" as="geometry">
            <mxPoint x="314" y="810" as="sourcePoint" />
            <mxPoint x="401" y="885" as="targetPoint" />
            <Array as="points">
              <mxPoint x="360" y="810" />
              <mxPoint x="360" y="885" />
            </Array>
          </mxGeometry>
        </mxCell>
        <mxCell id="rgsiSxx9pNVqM9AClZs8-17" value="" style="endArrow=classic;html=1;rounded=0;fontSize=12;startSize=8;endSize=8;curved=0;entryX=0;entryY=0.5;entryDx=0;entryDy=0;exitX=1.005;exitY=0.908;exitDx=0;exitDy=0;exitPerimeter=0;" edge="1" parent="1">
          <mxGeometry width="50" height="50" relative="1" as="geometry">
            <mxPoint x="633" y="930" as="sourcePoint" />
            <mxPoint x="720" y="1005" as="targetPoint" />
            <Array as="points">
              <mxPoint x="679" y="930" />
              <mxPoint x="679" y="1005" />
            </Array>
          </mxGeometry>
        </mxCell>
        <mxCell id="rgsiSxx9pNVqM9AClZs8-18" value="" style="endArrow=classic;html=1;rounded=0;fontSize=12;startSize=8;endSize=8;curved=0;entryX=0;entryY=0.5;entryDx=0;entryDy=0;exitX=1.005;exitY=0.908;exitDx=0;exitDy=0;exitPerimeter=0;" edge="1" parent="1">
          <mxGeometry width="50" height="50" relative="1" as="geometry">
            <mxPoint x="953" y="1070" as="sourcePoint" />
            <mxPoint x="1040" y="1145" as="targetPoint" />
            <Array as="points">
              <mxPoint x="999" y="1070" />
              <mxPoint x="999" y="1145" />
            </Array>
          </mxGeometry>
        </mxCell>
        <mxCell id="rgsiSxx9pNVqM9AClZs8-19" value="с" style="endArrow=classic;html=1;rounded=0;fontSize=12;startSize=8;endSize=8;curved=1;entryX=0;entryY=1;entryDx=0;entryDy=0;" edge="1" parent="1">
          <mxGeometry width="50" height="50" relative="1" as="geometry">
            <mxPoint x="-415" y="620" as="sourcePoint" />
            <mxPoint x="-240" y="620" as="targetPoint" />
          </mxGeometry>
        </mxCell>
        <mxCell id="rgsiSxx9pNVqM9AClZs8-21" value="Котирування цінних паперів" style="text;html=1;align=center;verticalAlign=middle;whiteSpace=wrap;rounded=0;" vertex="1" parent="1">
          <mxGeometry x="-440" y="580" width="195" height="30" as="geometry" />
        </mxCell>
        <mxCell id="rgsiSxx9pNVqM9AClZs8-22" value="" style="endArrow=classic;html=1;rounded=0;fontSize=12;startSize=8;endSize=8;curved=1;entryX=0.25;entryY=1;entryDx=0;entryDy=0;" edge="1" parent="1">
          <mxGeometry width="50" height="50" relative="1" as="geometry">
            <mxPoint x="-190" y="1320" as="sourcePoint" />
            <mxPoint x="-190" y="687" as="targetPoint" />
          </mxGeometry>
        </mxCell>
        <mxCell id="rgsiSxx9pNVqM9AClZs8-23" value="" style="endArrow=classic;html=1;rounded=0;fontSize=12;startSize=8;endSize=8;curved=1;entryX=0.25;entryY=1;entryDx=0;entryDy=0;" edge="1" parent="1">
          <mxGeometry width="50" height="50" relative="1" as="geometry">
            <mxPoint x="-140" y="788" as="sourcePoint" />
            <mxPoint x="-140" y="687" as="targetPoint" />
          </mxGeometry>
        </mxCell>
        <mxCell id="rgsiSxx9pNVqM9AClZs8-25" value="Інвестиційні аналітики" style="text;html=1;align=center;verticalAlign=middle;whiteSpace=wrap;rounded=0;rotation=-90;" vertex="1" parent="1">
          <mxGeometry x="-250" y="740" width="184" height="30" as="geometry" />
        </mxCell>
        <mxCell id="rgsiSxx9pNVqM9AClZs8-26" value="с" style="endArrow=classic;html=1;rounded=0;fontSize=12;startSize=8;endSize=8;curved=1;entryX=0;entryY=1;entryDx=0;entryDy=0;" edge="1" parent="1">
          <mxGeometry width="50" height="50" relative="1" as="geometry">
            <mxPoint x="-94" y="764.67" as="sourcePoint" />
            <mxPoint x="81" y="764.67" as="targetPoint" />
          </mxGeometry>
        </mxCell>
        <mxCell id="rgsiSxx9pNVqM9AClZs8-27" value="с" style="endArrow=classic;html=1;rounded=0;fontSize=12;startSize=8;endSize=8;curved=1;entryX=0;entryY=1;entryDx=0;entryDy=0;" edge="1" parent="1">
          <mxGeometry width="50" height="50" relative="1" as="geometry">
            <mxPoint x="-94" y="800" as="sourcePoint" />
            <mxPoint x="81" y="800" as="targetPoint" />
          </mxGeometry>
        </mxCell>
        <mxCell id="rgsiSxx9pNVqM9AClZs8-28" value="Котирування цінних паперів" style="text;html=1;align=center;verticalAlign=middle;whiteSpace=wrap;rounded=0;" vertex="1" parent="1">
          <mxGeometry x="-111" y="733.5" width="195" height="30" as="geometry" />
        </mxCell>
        <mxCell id="rgsiSxx9pNVqM9AClZs8-29" value="Новини з фінансових джерел" style="text;html=1;align=center;verticalAlign=middle;whiteSpace=wrap;rounded=0;" vertex="1" parent="1">
          <mxGeometry x="-111" y="770" width="195" height="30" as="geometry" />
        </mxCell>
        <mxCell id="rgsiSxx9pNVqM9AClZs8-31" value="" style="endArrow=classic;html=1;rounded=0;fontSize=12;startSize=8;endSize=8;curved=1;entryX=0.25;entryY=1;entryDx=0;entryDy=0;" edge="1" parent="1">
          <mxGeometry width="50" height="50" relative="1" as="geometry">
            <mxPoint x="860" y="1192" as="sourcePoint" />
            <mxPoint x="860" y="1091" as="targetPoint" />
          </mxGeometry>
        </mxCell>
        <mxCell id="rgsiSxx9pNVqM9AClZs8-32" value="" style="endArrow=classic;html=1;rounded=0;fontSize=12;startSize=8;endSize=8;curved=1;entryX=0.25;entryY=1;entryDx=0;entryDy=0;" edge="1" parent="1">
          <mxGeometry width="50" height="50" relative="1" as="geometry">
            <mxPoint x="131.67000000000002" y="918" as="sourcePoint" />
            <mxPoint x="131.67000000000002" y="817" as="targetPoint" />
          </mxGeometry>
        </mxCell>
        <mxCell id="rgsiSxx9pNVqM9AClZs8-33" value="" style="endArrow=classic;html=1;rounded=0;fontSize=12;startSize=8;endSize=8;curved=1;entryX=0.25;entryY=1;entryDx=0;entryDy=0;" edge="1" parent="1">
          <mxGeometry width="50" height="50" relative="1" as="geometry">
            <mxPoint x="185" y="918" as="sourcePoint" />
            <mxPoint x="185" y="817" as="targetPoint" />
          </mxGeometry>
        </mxCell>
        <mxCell id="rgsiSxx9pNVqM9AClZs8-34" value="Модуль аналізу новин" style="text;html=1;align=center;verticalAlign=middle;whiteSpace=wrap;rounded=0;rotation=-90;" vertex="1" parent="1">
          <mxGeometry x="43" y="880" width="146" height="30" as="geometry" />
        </mxCell>
        <mxCell id="rgsiSxx9pNVqM9AClZs8-35" value="Фільтраційний механізм вибору активів" style="text;html=1;align=center;verticalAlign=middle;whiteSpace=wrap;rounded=0;rotation=-90;" vertex="1" parent="1">
          <mxGeometry x="84" y="880" width="161" height="30" as="geometry" />
        </mxCell>
        <mxCell id="rgsiSxx9pNVqM9AClZs8-36" value="" style="endArrow=classic;html=1;rounded=0;fontSize=12;startSize=8;endSize=8;curved=1;entryX=0.5;entryY=0;entryDx=0;entryDy=0;" edge="1" parent="1">
          <mxGeometry width="50" height="50" relative="1" as="geometry">
            <mxPoint x="505" y="692.5" as="sourcePoint" />
            <mxPoint x="505" y="817.5" as="targetPoint" />
          </mxGeometry>
        </mxCell>
        <mxCell id="rgsiSxx9pNVqM9AClZs8-37" value="Інвестиційна стратегія компанії" style="text;html=1;align=center;verticalAlign=middle;whiteSpace=wrap;rounded=0;rotation=-90;" vertex="1" parent="1">
          <mxGeometry x="400" y="733.5" width="155" height="30" as="geometry" />
        </mxCell>
        <mxCell id="rgsiSxx9pNVqM9AClZs8-38" value="" style="endArrow=classic;html=1;rounded=0;fontSize=12;startSize=8;endSize=8;curved=1;entryX=0.25;entryY=1;entryDx=0;entryDy=0;" edge="1" parent="1">
          <mxGeometry width="50" height="50" relative="1" as="geometry">
            <mxPoint x="441" y="1055" as="sourcePoint" />
            <mxPoint x="441" y="954" as="targetPoint" />
          </mxGeometry>
        </mxCell>
        <mxCell id="rgsiSxx9pNVqM9AClZs8-39" value="" style="endArrow=classic;html=1;rounded=0;fontSize=12;startSize=8;endSize=8;curved=1;entryX=0.25;entryY=1;entryDx=0;entryDy=0;" edge="1" parent="1">
          <mxGeometry width="50" height="50" relative="1" as="geometry">
            <mxPoint x="516.17" y="1055" as="sourcePoint" />
            <mxPoint x="516.17" y="954" as="targetPoint" />
          </mxGeometry>
        </mxCell>
        <mxCell id="rgsiSxx9pNVqM9AClZs8-40" value="Модуль виконання торгових стратегій" style="text;html=1;align=center;verticalAlign=middle;whiteSpace=wrap;rounded=0;rotation=-90;" vertex="1" parent="1">
          <mxGeometry x="340" y="1000" width="155" height="30" as="geometry" />
        </mxCell>
        <mxCell id="rgsiSxx9pNVqM9AClZs8-41" value="Інвестиційні аналітики" style="text;html=1;align=center;verticalAlign=middle;whiteSpace=wrap;rounded=0;rotation=-90;" vertex="1" parent="1">
          <mxGeometry x="400" y="1007.5" width="184" height="30" as="geometry" />
        </mxCell>
        <mxCell id="rgsiSxx9pNVqM9AClZs8-42" value="" style="endArrow=classic;html=1;rounded=0;fontSize=12;startSize=8;endSize=8;curved=1;entryX=0.25;entryY=1;entryDx=0;entryDy=0;" edge="1" parent="1">
          <mxGeometry width="50" height="50" relative="1" as="geometry">
            <mxPoint x="780" y="1320" as="sourcePoint" />
            <mxPoint x="780" y="1091" as="targetPoint" />
          </mxGeometry>
        </mxCell>
        <mxCell id="rgsiSxx9pNVqM9AClZs8-43" value="" style="endArrow=classic;html=1;rounded=0;fontSize=12;startSize=8;endSize=8;curved=0;entryX=0.25;entryY=1;entryDx=0;entryDy=0;" edge="1" parent="1">
          <mxGeometry width="50" height="50" relative="1" as="geometry">
            <mxPoint x="-190" y="1320" as="sourcePoint" />
            <mxPoint x="1090" y="1228" as="targetPoint" />
            <Array as="points">
              <mxPoint x="1090" y="1320" />
            </Array>
          </mxGeometry>
        </mxCell>
        <mxCell id="rgsiSxx9pNVqM9AClZs8-44" value="" style="endArrow=classic;html=1;rounded=0;fontSize=12;startSize=8;endSize=8;curved=1;entryX=0.25;entryY=1;entryDx=0;entryDy=0;" edge="1" parent="1">
          <mxGeometry width="50" height="50" relative="1" as="geometry">
            <mxPoint x="1156.17" y="1329" as="sourcePoint" />
            <mxPoint x="1156.17" y="1228" as="targetPoint" />
          </mxGeometry>
        </mxCell>
        <mxCell id="rgsiSxx9pNVqM9AClZs8-45" value="" style="endArrow=classic;html=1;rounded=0;fontSize=12;startSize=8;endSize=8;curved=1;entryX=0.5;entryY=0;entryDx=0;entryDy=0;" edge="1" parent="1">
          <mxGeometry width="50" height="50" relative="1" as="geometry">
            <mxPoint x="1130" y="966" as="sourcePoint" />
            <mxPoint x="1130" y="1091" as="targetPoint" />
          </mxGeometry>
        </mxCell>
        <mxCell id="rgsiSxx9pNVqM9AClZs8-47" value="База даних" style="text;html=1;align=center;verticalAlign=middle;whiteSpace=wrap;rounded=0;rotation=-90;" vertex="1" parent="1">
          <mxGeometry x="750" y="1130" width="184" height="30" as="geometry" />
        </mxCell>
        <mxCell id="rgsiSxx9pNVqM9AClZs8-48" value="База даних" style="text;html=1;align=center;verticalAlign=middle;whiteSpace=wrap;rounded=0;rotation=-90;" vertex="1" parent="1">
          <mxGeometry x="1050" y="1260" width="184" height="30" as="geometry" />
        </mxCell>
        <mxCell id="rgsiSxx9pNVqM9AClZs8-49" value="Програмне забезпечення" style="text;html=1;align=center;verticalAlign=middle;whiteSpace=wrap;rounded=0;rotation=0;" vertex="1" parent="1">
          <mxGeometry x="300" y="1330" width="184" height="30" as="geometry" />
        </mxCell>
        <mxCell id="rgsiSxx9pNVqM9AClZs8-50" value="Вимоги фінансових регуляторів" style="text;html=1;align=center;verticalAlign=middle;whiteSpace=wrap;rounded=0;rotation=-90;" vertex="1" parent="1">
          <mxGeometry x="1030" y="1000" width="153" height="30" as="geometry" />
        </mxCell>
        <mxCell id="rgsiSxx9pNVqM9AClZs8-51" value="" style="endArrow=classic;html=1;rounded=0;fontSize=12;startSize=8;endSize=8;curved=1;entryX=0;entryY=1;entryDx=0;entryDy=0;" edge="1" parent="1">
          <mxGeometry width="50" height="50" relative="1" as="geometry">
            <mxPoint x="1273" y="1120" as="sourcePoint" />
            <mxPoint x="1448" y="1120" as="targetPoint" />
          </mxGeometry>
        </mxCell>
        <mxCell id="rgsiSxx9pNVqM9AClZs8-52" value="" style="endArrow=classic;html=1;rounded=0;fontSize=12;startSize=8;endSize=8;curved=1;entryX=0;entryY=1;entryDx=0;entryDy=0;" edge="1" parent="1">
          <mxGeometry width="50" height="50" relative="1" as="geometry">
            <mxPoint x="1273" y="1160" as="sourcePoint" />
            <mxPoint x="1448" y="1160" as="targetPoint" />
          </mxGeometry>
        </mxCell>
        <mxCell id="rgsiSxx9pNVqM9AClZs8-53" value="" style="endArrow=classic;html=1;rounded=0;fontSize=12;startSize=8;endSize=8;curved=1;entryX=0;entryY=1;entryDx=0;entryDy=0;" edge="1" parent="1">
          <mxGeometry width="50" height="50" relative="1" as="geometry">
            <mxPoint x="1273" y="1200" as="sourcePoint" />
            <mxPoint x="1448" y="1200" as="targetPoint" />
          </mxGeometry>
        </mxCell>
        <mxCell id="rgsiSxx9pNVqM9AClZs8-54" value="Інвестиційні рішення" style="text;html=1;align=center;verticalAlign=middle;whiteSpace=wrap;rounded=0;" vertex="1" parent="1">
          <mxGeometry x="1260" y="1091" width="184" height="30" as="geometry" />
        </mxCell>
        <mxCell id="rgsiSxx9pNVqM9AClZs8-56" value="Звіти" style="text;html=1;align=center;verticalAlign=middle;whiteSpace=wrap;rounded=0;" vertex="1" parent="1">
          <mxGeometry x="1260" y="1130" width="184" height="30" as="geometry" />
        </mxCell>
        <mxCell id="rgsiSxx9pNVqM9AClZs8-57" value="Портфелі клієнтів" style="text;html=1;align=center;verticalAlign=middle;whiteSpace=wrap;rounded=0;" vertex="1" parent="1">
          <mxGeometry x="1260" y="1170" width="184" height="30" as="geometry" />
        </mxCell>
        <mxCell id="rgsiSxx9pNVqM9AClZs8-58" value="Дані клієнта" style="text;html=1;align=center;verticalAlign=middle;whiteSpace=wrap;rounded=0;" vertex="1" parent="1">
          <mxGeometry x="555" y="1037.5" width="195" height="30" as="geometry" />
        </mxCell>
        <mxCell id="rgsiSxx9pNVqM9AClZs8-59" value="с" style="endArrow=classic;html=1;rounded=0;fontSize=12;startSize=8;endSize=8;curved=1;entryX=0;entryY=1;entryDx=0;entryDy=0;" edge="1" parent="1">
          <mxGeometry width="50" height="50" relative="1" as="geometry">
            <mxPoint x="610" y="1070" as="sourcePoint" />
            <mxPoint x="715" y="1070" as="targetPoint" />
          </mxGeometry>
        </mxCell>
        <mxCell id="rgsiSxx9pNVqM9AClZs8-60" value="" style="endArrow=classic;html=1;rounded=0;fontSize=12;startSize=8;endSize=8;curved=1;entryX=0.25;entryY=1;entryDx=0;entryDy=0;" edge="1" parent="1">
          <mxGeometry width="50" height="50" relative="1" as="geometry">
            <mxPoint x="232" y="1320" as="sourcePoint" />
            <mxPoint x="232" y="817" as="targetPoint" />
          </mxGeometry>
        </mxCell>
        <mxCell id="rgsiSxx9pNVqM9AClZs8-61" value="" style="endArrow=classic;html=1;rounded=0;fontSize=12;startSize=8;endSize=8;curved=1;entryX=0.25;entryY=1;entryDx=0;entryDy=0;" edge="1" parent="1">
          <mxGeometry width="50" height="50" relative="1" as="geometry">
            <mxPoint x="560" y="1320" as="sourcePoint" />
            <mxPoint x="560" y="954" as="targetPoint" />
          </mxGeometry>
        </mxCell>
        <mxCell id="rgsiSxx9pNVqM9AClZs8-62" value="А1" style="text;html=1;align=center;verticalAlign=middle;whiteSpace=wrap;rounded=0;" vertex="1" parent="1">
          <mxGeometry x="-250" y="657" width="60" height="30" as="geometry" />
        </mxCell>
        <mxCell id="rgsiSxx9pNVqM9AClZs8-63" value="А2" style="text;html=1;align=center;verticalAlign=middle;whiteSpace=wrap;rounded=0;" vertex="1" parent="1">
          <mxGeometry x="70" y="787" width="60" height="30" as="geometry" />
        </mxCell>
        <mxCell id="rgsiSxx9pNVqM9AClZs8-64" value="А3" style="text;html=1;align=center;verticalAlign=middle;whiteSpace=wrap;rounded=0;" vertex="1" parent="1">
          <mxGeometry x="387.5" y="924" width="60" height="30" as="geometry" />
        </mxCell>
        <mxCell id="rgsiSxx9pNVqM9AClZs8-65" value="А4" style="text;html=1;align=center;verticalAlign=middle;whiteSpace=wrap;rounded=0;" vertex="1" parent="1">
          <mxGeometry x="710" y="1061" width="60" height="30" as="geometry" />
        </mxCell>
        <mxCell id="rgsiSxx9pNVqM9AClZs8-66" value="А5" style="text;html=1;align=center;verticalAlign=middle;whiteSpace=wrap;rounded=0;" vertex="1" parent="1">
          <mxGeometry x="1030" y="1198" width="60" height="30" as="geometry" />
        </mxCell>
        <mxCell id="rgsiSxx9pNVqM9AClZs8-86" value="" style="group" vertex="1" connectable="0" parent="1">
          <mxGeometry x="182" y="1580" width="40" height="60" as="geometry" />
        </mxCell>
        <mxCell id="rgsiSxx9pNVqM9AClZs8-83" value="О" style="rounded=0;whiteSpace=wrap;html=1;" vertex="1" parent="rgsiSxx9pNVqM9AClZs8-86">
          <mxGeometry x="10" width="30" height="60" as="geometry" />
        </mxCell>
        <mxCell id="rgsiSxx9pNVqM9AClZs8-85" value="" style="rounded=0;whiteSpace=wrap;html=1;" vertex="1" parent="rgsiSxx9pNVqM9AClZs8-86">
          <mxGeometry width="10" height="60" as="geometry" />
        </mxCell>
        <mxCell id="rgsiSxx9pNVqM9AClZs8-103" value="" style="group" vertex="1" connectable="0" parent="1">
          <mxGeometry x="249" y="1630" width="128" height="100" as="geometry" />
        </mxCell>
        <mxCell id="rgsiSxx9pNVqM9AClZs8-73" value="Не відповідає" style="rounded=0;whiteSpace=wrap;html=1;" vertex="1" parent="rgsiSxx9pNVqM9AClZs8-103">
          <mxGeometry width="128" height="70" as="geometry" />
        </mxCell>
        <mxCell id="rgsiSxx9pNVqM9AClZs8-94" value="" style="group" vertex="1" connectable="0" parent="rgsiSxx9pNVqM9AClZs8-103">
          <mxGeometry y="70" width="128" height="30" as="geometry" />
        </mxCell>
        <mxCell id="rgsiSxx9pNVqM9AClZs8-95" value="" style="rounded=0;whiteSpace=wrap;html=1;" vertex="1" parent="rgsiSxx9pNVqM9AClZs8-94">
          <mxGeometry width="128" height="30" as="geometry" />
        </mxCell>
        <mxCell id="rgsiSxx9pNVqM9AClZs8-96" value="" style="endArrow=none;html=1;rounded=0;fontSize=12;startSize=8;endSize=8;curved=1;exitX=0.5;exitY=1;exitDx=0;exitDy=0;" edge="1" parent="rgsiSxx9pNVqM9AClZs8-94" source="rgsiSxx9pNVqM9AClZs8-95">
          <mxGeometry width="50" height="50" relative="1" as="geometry">
            <mxPoint x="17.066666666666666" y="50" as="sourcePoint" />
            <mxPoint x="64" as="targetPoint" />
            <Array as="points">
              <mxPoint x="64" y="20" />
            </Array>
          </mxGeometry>
        </mxCell>
        <mxCell id="rgsiSxx9pNVqM9AClZs8-179" value="4" style="text;html=1;align=center;verticalAlign=middle;whiteSpace=wrap;rounded=0;" vertex="1" parent="rgsiSxx9pNVqM9AClZs8-94">
          <mxGeometry x="-19" width="60" height="30" as="geometry" />
        </mxCell>
        <mxCell id="rgsiSxx9pNVqM9AClZs8-123" value="" style="group" vertex="1" connectable="0" parent="1">
          <mxGeometry x="600" y="1600" width="40" height="60" as="geometry" />
        </mxCell>
        <mxCell id="rgsiSxx9pNVqM9AClZs8-124" value="О" style="rounded=0;whiteSpace=wrap;html=1;" vertex="1" parent="rgsiSxx9pNVqM9AClZs8-123">
          <mxGeometry x="10" width="30" height="60" as="geometry" />
        </mxCell>
        <mxCell id="rgsiSxx9pNVqM9AClZs8-125" value="" style="rounded=0;whiteSpace=wrap;html=1;" vertex="1" parent="rgsiSxx9pNVqM9AClZs8-123">
          <mxGeometry width="10" height="60" as="geometry" />
        </mxCell>
        <mxCell id="rgsiSxx9pNVqM9AClZs8-127" value="" style="group" vertex="1" connectable="0" parent="1">
          <mxGeometry x="670" y="1640" width="128" height="100" as="geometry" />
        </mxCell>
        <mxCell id="rgsiSxx9pNVqM9AClZs8-76" value="Автоматичне інвестування не дозволене" style="rounded=0;whiteSpace=wrap;html=1;" vertex="1" parent="rgsiSxx9pNVqM9AClZs8-127">
          <mxGeometry width="128" height="70" as="geometry" />
        </mxCell>
        <mxCell id="rgsiSxx9pNVqM9AClZs8-117" value="" style="group" vertex="1" connectable="0" parent="rgsiSxx9pNVqM9AClZs8-127">
          <mxGeometry y="70" width="128" height="30" as="geometry" />
        </mxCell>
        <mxCell id="rgsiSxx9pNVqM9AClZs8-118" value="" style="rounded=0;whiteSpace=wrap;html=1;" vertex="1" parent="rgsiSxx9pNVqM9AClZs8-117">
          <mxGeometry width="128" height="30" as="geometry" />
        </mxCell>
        <mxCell id="rgsiSxx9pNVqM9AClZs8-119" value="" style="endArrow=none;html=1;rounded=0;fontSize=12;startSize=8;endSize=8;curved=1;exitX=0.5;exitY=1;exitDx=0;exitDy=0;" edge="1" parent="rgsiSxx9pNVqM9AClZs8-117" source="rgsiSxx9pNVqM9AClZs8-118">
          <mxGeometry width="50" height="50" relative="1" as="geometry">
            <mxPoint x="17.066666666666666" y="50" as="sourcePoint" />
            <mxPoint x="64" as="targetPoint" />
            <Array as="points">
              <mxPoint x="64" y="20" />
            </Array>
          </mxGeometry>
        </mxCell>
        <mxCell id="rgsiSxx9pNVqM9AClZs8-188" value="7" style="text;html=1;align=center;verticalAlign=middle;whiteSpace=wrap;rounded=0;" vertex="1" parent="rgsiSxx9pNVqM9AClZs8-117">
          <mxGeometry x="-20" width="60" height="30" as="geometry" />
        </mxCell>
        <mxCell id="rgsiSxx9pNVqM9AClZs8-132" value="" style="group" vertex="1" connectable="0" parent="1">
          <mxGeometry x="840" y="1650" width="128" height="100" as="geometry" />
        </mxCell>
        <mxCell id="rgsiSxx9pNVqM9AClZs8-78" value="Відправлення запиту аналітику" style="rounded=0;whiteSpace=wrap;html=1;" vertex="1" parent="rgsiSxx9pNVqM9AClZs8-132">
          <mxGeometry width="128" height="70" as="geometry" />
        </mxCell>
        <mxCell id="rgsiSxx9pNVqM9AClZs8-110" value="" style="group" vertex="1" connectable="0" parent="rgsiSxx9pNVqM9AClZs8-132">
          <mxGeometry y="70" width="128" height="30" as="geometry" />
        </mxCell>
        <mxCell id="rgsiSxx9pNVqM9AClZs8-111" value="" style="rounded=0;whiteSpace=wrap;html=1;" vertex="1" parent="rgsiSxx9pNVqM9AClZs8-110">
          <mxGeometry width="128" height="30" as="geometry" />
        </mxCell>
        <mxCell id="rgsiSxx9pNVqM9AClZs8-112" value="" style="endArrow=none;html=1;rounded=0;fontSize=12;startSize=8;endSize=8;curved=1;exitX=0.5;exitY=1;exitDx=0;exitDy=0;" edge="1" parent="rgsiSxx9pNVqM9AClZs8-110" source="rgsiSxx9pNVqM9AClZs8-111">
          <mxGeometry width="50" height="50" relative="1" as="geometry">
            <mxPoint x="17.066666666666666" y="50" as="sourcePoint" />
            <mxPoint x="64" as="targetPoint" />
            <Array as="points">
              <mxPoint x="64" y="20" />
            </Array>
          </mxGeometry>
        </mxCell>
        <mxCell id="rgsiSxx9pNVqM9AClZs8-186" value="9" style="text;html=1;align=center;verticalAlign=middle;whiteSpace=wrap;rounded=0;" vertex="1" parent="rgsiSxx9pNVqM9AClZs8-110">
          <mxGeometry x="-20" width="60" height="30" as="geometry" />
        </mxCell>
        <mxCell id="rgsiSxx9pNVqM9AClZs8-143" value="" style="group" vertex="1" connectable="0" parent="1">
          <mxGeometry x="1010" y="1670" width="40" height="60" as="geometry" />
        </mxCell>
        <mxCell id="rgsiSxx9pNVqM9AClZs8-144" value="О" style="rounded=0;whiteSpace=wrap;html=1;" vertex="1" parent="rgsiSxx9pNVqM9AClZs8-143">
          <mxGeometry x="10" width="30" height="60" as="geometry" />
        </mxCell>
        <mxCell id="rgsiSxx9pNVqM9AClZs8-145" value="" style="rounded=0;whiteSpace=wrap;html=1;" vertex="1" parent="rgsiSxx9pNVqM9AClZs8-143">
          <mxGeometry width="10" height="60" as="geometry" />
        </mxCell>
        <mxCell id="rgsiSxx9pNVqM9AClZs8-147" value="" style="group" vertex="1" connectable="0" parent="1">
          <mxGeometry x="1080" y="1590" width="128" height="100" as="geometry" />
        </mxCell>
        <mxCell id="rgsiSxx9pNVqM9AClZs8-79" value="Запит підтверджено" style="rounded=0;whiteSpace=wrap;html=1;" vertex="1" parent="rgsiSxx9pNVqM9AClZs8-147">
          <mxGeometry width="128" height="70" as="geometry" />
        </mxCell>
        <mxCell id="rgsiSxx9pNVqM9AClZs8-139" value="" style="group" vertex="1" connectable="0" parent="rgsiSxx9pNVqM9AClZs8-147">
          <mxGeometry y="70" width="128" height="30" as="geometry" />
        </mxCell>
        <mxCell id="rgsiSxx9pNVqM9AClZs8-140" value="" style="rounded=0;whiteSpace=wrap;html=1;" vertex="1" parent="rgsiSxx9pNVqM9AClZs8-139">
          <mxGeometry width="128" height="30" as="geometry" />
        </mxCell>
        <mxCell id="rgsiSxx9pNVqM9AClZs8-141" value="" style="endArrow=none;html=1;rounded=0;fontSize=12;startSize=8;endSize=8;curved=1;exitX=0.5;exitY=1;exitDx=0;exitDy=0;" edge="1" parent="rgsiSxx9pNVqM9AClZs8-139" source="rgsiSxx9pNVqM9AClZs8-140">
          <mxGeometry width="50" height="50" relative="1" as="geometry">
            <mxPoint x="17.066666666666666" y="50" as="sourcePoint" />
            <mxPoint x="64" as="targetPoint" />
            <Array as="points">
              <mxPoint x="64" y="20" />
            </Array>
          </mxGeometry>
        </mxCell>
        <mxCell id="rgsiSxx9pNVqM9AClZs8-192" value="10" style="text;html=1;align=center;verticalAlign=middle;whiteSpace=wrap;rounded=0;" vertex="1" parent="rgsiSxx9pNVqM9AClZs8-139">
          <mxGeometry x="-20" width="60" height="30" as="geometry" />
        </mxCell>
        <mxCell id="rgsiSxx9pNVqM9AClZs8-148" value="" style="group" vertex="1" connectable="0" parent="1">
          <mxGeometry x="1080" y="1710" width="128" height="100" as="geometry" />
        </mxCell>
        <mxCell id="rgsiSxx9pNVqM9AClZs8-80" value="Запит відхилено" style="rounded=0;whiteSpace=wrap;html=1;" vertex="1" parent="rgsiSxx9pNVqM9AClZs8-148">
          <mxGeometry width="128" height="70" as="geometry" />
        </mxCell>
        <mxCell id="rgsiSxx9pNVqM9AClZs8-136" value="" style="group" vertex="1" connectable="0" parent="rgsiSxx9pNVqM9AClZs8-148">
          <mxGeometry y="70" width="128" height="30" as="geometry" />
        </mxCell>
        <mxCell id="rgsiSxx9pNVqM9AClZs8-137" value="" style="rounded=0;whiteSpace=wrap;html=1;" vertex="1" parent="rgsiSxx9pNVqM9AClZs8-136">
          <mxGeometry width="128" height="30" as="geometry" />
        </mxCell>
        <mxCell id="rgsiSxx9pNVqM9AClZs8-138" value="" style="endArrow=none;html=1;rounded=0;fontSize=12;startSize=8;endSize=8;curved=1;exitX=0.5;exitY=1;exitDx=0;exitDy=0;" edge="1" parent="rgsiSxx9pNVqM9AClZs8-136" source="rgsiSxx9pNVqM9AClZs8-137">
          <mxGeometry width="50" height="50" relative="1" as="geometry">
            <mxPoint x="17.066666666666666" y="50" as="sourcePoint" />
            <mxPoint x="64" as="targetPoint" />
            <Array as="points">
              <mxPoint x="64" y="20" />
            </Array>
          </mxGeometry>
        </mxCell>
        <mxCell id="rgsiSxx9pNVqM9AClZs8-191" value="11" style="text;html=1;align=center;verticalAlign=middle;whiteSpace=wrap;rounded=0;" vertex="1" parent="rgsiSxx9pNVqM9AClZs8-136">
          <mxGeometry x="-20" width="60" height="30" as="geometry" />
        </mxCell>
        <mxCell id="rgsiSxx9pNVqM9AClZs8-150" value="" style="group" vertex="1" connectable="0" parent="1">
          <mxGeometry x="1260" y="1540" width="40" height="60" as="geometry" />
        </mxCell>
        <mxCell id="rgsiSxx9pNVqM9AClZs8-151" value="х" style="rounded=0;whiteSpace=wrap;html=1;" vertex="1" parent="rgsiSxx9pNVqM9AClZs8-150">
          <mxGeometry x="10" width="30" height="60" as="geometry" />
        </mxCell>
        <mxCell id="rgsiSxx9pNVqM9AClZs8-152" value="" style="rounded=0;whiteSpace=wrap;html=1;" vertex="1" parent="rgsiSxx9pNVqM9AClZs8-150">
          <mxGeometry width="10" height="60" as="geometry" />
        </mxCell>
        <mxCell id="rgsiSxx9pNVqM9AClZs8-153" value="" style="endArrow=classic;html=1;rounded=0;fontSize=12;startSize=8;endSize=8;curved=1;" edge="1" parent="1">
          <mxGeometry width="50" height="50" relative="1" as="geometry">
            <mxPoint x="-30" y="1610" as="sourcePoint" />
            <mxPoint x="10" y="1610" as="targetPoint" />
          </mxGeometry>
        </mxCell>
        <mxCell id="rgsiSxx9pNVqM9AClZs8-154" value="" style="endArrow=classic;html=1;rounded=0;fontSize=12;startSize=8;endSize=8;curved=1;" edge="1" parent="1">
          <mxGeometry width="50" height="50" relative="1" as="geometry">
            <mxPoint x="141" y="1610" as="sourcePoint" />
            <mxPoint x="181" y="1610" as="targetPoint" />
          </mxGeometry>
        </mxCell>
        <mxCell id="rgsiSxx9pNVqM9AClZs8-155" value="" style="endArrow=classic;html=1;rounded=0;fontSize=12;startSize=8;endSize=8;curved=0;exitX=0.25;exitY=0;exitDx=0;exitDy=0;entryX=-0.013;entryY=0.574;entryDx=0;entryDy=0;entryPerimeter=0;" edge="1" parent="1" source="rgsiSxx9pNVqM9AClZs8-83" target="rgsiSxx9pNVqM9AClZs8-72">
          <mxGeometry width="50" height="50" relative="1" as="geometry">
            <mxPoint x="199" y="1540" as="sourcePoint" />
            <mxPoint x="239" y="1540" as="targetPoint" />
            <Array as="points">
              <mxPoint x="200" y="1550" />
            </Array>
          </mxGeometry>
        </mxCell>
        <mxCell id="rgsiSxx9pNVqM9AClZs8-156" value="" style="endArrow=classic;html=1;rounded=0;fontSize=12;startSize=8;endSize=8;curved=0;exitX=0.25;exitY=1;exitDx=0;exitDy=0;entryX=0.023;entryY=0.56;entryDx=0;entryDy=0;entryPerimeter=0;" edge="1" parent="1" source="rgsiSxx9pNVqM9AClZs8-83" target="rgsiSxx9pNVqM9AClZs8-73">
          <mxGeometry width="50" height="50" relative="1" as="geometry">
            <mxPoint x="199" y="1700" as="sourcePoint" />
            <mxPoint x="239" y="1670" as="targetPoint" />
            <Array as="points">
              <mxPoint x="199" y="1670" />
            </Array>
          </mxGeometry>
        </mxCell>
        <mxCell id="rgsiSxx9pNVqM9AClZs8-157" value="" style="endArrow=classic;html=1;rounded=0;fontSize=12;startSize=8;endSize=8;curved=0;entryX=-0.013;entryY=0.574;entryDx=0;entryDy=0;entryPerimeter=0;" edge="1" parent="1">
          <mxGeometry width="50" height="50" relative="1" as="geometry">
            <mxPoint x="380" y="1550" as="sourcePoint" />
            <mxPoint x="429.5" y="1620" as="targetPoint" />
            <Array as="points">
              <mxPoint x="400" y="1550" />
              <mxPoint x="400" y="1620" />
            </Array>
          </mxGeometry>
        </mxCell>
        <mxCell id="rgsiSxx9pNVqM9AClZs8-158" value="" style="endArrow=classic;html=1;rounded=0;fontSize=12;startSize=8;endSize=8;curved=1;" edge="1" parent="1">
          <mxGeometry width="50" height="50" relative="1" as="geometry">
            <mxPoint x="556" y="1630" as="sourcePoint" />
            <mxPoint x="600" y="1630" as="targetPoint" />
          </mxGeometry>
        </mxCell>
        <mxCell id="rgsiSxx9pNVqM9AClZs8-159" value="" style="endArrow=classic;html=1;rounded=0;fontSize=12;startSize=8;endSize=8;curved=0;exitX=0.25;exitY=0;exitDx=0;exitDy=0;entryX=-0.013;entryY=0.574;entryDx=0;entryDy=0;entryPerimeter=0;" edge="1" parent="1">
          <mxGeometry width="50" height="50" relative="1" as="geometry">
            <mxPoint x="620" y="1600" as="sourcePoint" />
            <mxPoint x="667" y="1570" as="targetPoint" />
            <Array as="points">
              <mxPoint x="620" y="1570" />
            </Array>
          </mxGeometry>
        </mxCell>
        <mxCell id="rgsiSxx9pNVqM9AClZs8-160" value="" style="endArrow=classic;html=1;rounded=0;fontSize=12;startSize=8;endSize=8;curved=0;entryX=0.023;entryY=0.56;entryDx=0;entryDy=0;entryPerimeter=0;" edge="1" parent="1">
          <mxGeometry width="50" height="50" relative="1" as="geometry">
            <mxPoint x="620" y="1660" as="sourcePoint" />
            <mxPoint x="670" y="1689" as="targetPoint" />
            <Array as="points">
              <mxPoint x="620" y="1689" />
            </Array>
          </mxGeometry>
        </mxCell>
        <mxCell id="rgsiSxx9pNVqM9AClZs8-161" value="" style="endArrow=classic;html=1;rounded=0;fontSize=12;startSize=8;endSize=8;curved=1;" edge="1" parent="1">
          <mxGeometry width="50" height="50" relative="1" as="geometry">
            <mxPoint x="798" y="1559.5" as="sourcePoint" />
            <mxPoint x="842" y="1559.5" as="targetPoint" />
          </mxGeometry>
        </mxCell>
        <mxCell id="rgsiSxx9pNVqM9AClZs8-162" value="" style="endArrow=classic;html=1;rounded=0;fontSize=12;startSize=8;endSize=8;curved=1;" edge="1" parent="1">
          <mxGeometry width="50" height="50" relative="1" as="geometry">
            <mxPoint x="798" y="1689.75" as="sourcePoint" />
            <mxPoint x="842" y="1689.75" as="targetPoint" />
          </mxGeometry>
        </mxCell>
        <mxCell id="rgsiSxx9pNVqM9AClZs8-164" value="" style="endArrow=classic;html=1;rounded=0;fontSize=12;startSize=8;endSize=8;curved=1;" edge="1" parent="1">
          <mxGeometry width="50" height="50" relative="1" as="geometry">
            <mxPoint x="968" y="1699.5" as="sourcePoint" />
            <mxPoint x="1008" y="1699.5" as="targetPoint" />
          </mxGeometry>
        </mxCell>
        <mxCell id="rgsiSxx9pNVqM9AClZs8-165" value="" style="endArrow=classic;html=1;rounded=0;fontSize=12;startSize=8;endSize=8;curved=0;exitX=0.25;exitY=0;exitDx=0;exitDy=0;entryX=-0.013;entryY=0.574;entryDx=0;entryDy=0;entryPerimeter=0;" edge="1" parent="1">
          <mxGeometry width="50" height="50" relative="1" as="geometry">
            <mxPoint x="1030" y="1670" as="sourcePoint" />
            <mxPoint x="1077" y="1640" as="targetPoint" />
            <Array as="points">
              <mxPoint x="1030" y="1640" />
            </Array>
          </mxGeometry>
        </mxCell>
        <mxCell id="rgsiSxx9pNVqM9AClZs8-166" value="" style="endArrow=classic;html=1;rounded=0;fontSize=12;startSize=8;endSize=8;curved=0;entryX=0.023;entryY=0.56;entryDx=0;entryDy=0;entryPerimeter=0;" edge="1" parent="1">
          <mxGeometry width="50" height="50" relative="1" as="geometry">
            <mxPoint x="1030" y="1730" as="sourcePoint" />
            <mxPoint x="1080" y="1759" as="targetPoint" />
            <Array as="points">
              <mxPoint x="1030" y="1759" />
            </Array>
          </mxGeometry>
        </mxCell>
        <mxCell id="rgsiSxx9pNVqM9AClZs8-167" value="" style="endArrow=classic;html=1;rounded=0;fontSize=12;startSize=8;endSize=8;curved=1;entryX=0.067;entryY=0.308;entryDx=0;entryDy=0;entryPerimeter=0;" edge="1" parent="1" target="rgsiSxx9pNVqM9AClZs8-152">
          <mxGeometry width="50" height="50" relative="1" as="geometry">
            <mxPoint x="970" y="1559.75" as="sourcePoint" />
            <mxPoint x="1010" y="1559.75" as="targetPoint" />
          </mxGeometry>
        </mxCell>
        <mxCell id="rgsiSxx9pNVqM9AClZs8-168" value="" style="endArrow=classic;html=1;rounded=0;fontSize=12;startSize=8;endSize=8;curved=0;entryX=0.378;entryY=1.003;entryDx=0;entryDy=0;entryPerimeter=0;" edge="1" parent="1" target="rgsiSxx9pNVqM9AClZs8-151">
          <mxGeometry width="50" height="50" relative="1" as="geometry">
            <mxPoint x="1208" y="1639.5" as="sourcePoint" />
            <mxPoint x="1248" y="1639.5" as="targetPoint" />
            <Array as="points">
              <mxPoint x="1280" y="1640" />
            </Array>
          </mxGeometry>
        </mxCell>
        <mxCell id="rgsiSxx9pNVqM9AClZs8-169" value="" style="endArrow=classic;html=1;rounded=0;fontSize=12;startSize=8;endSize=8;curved=1;" edge="1" parent="1">
          <mxGeometry width="50" height="50" relative="1" as="geometry">
            <mxPoint x="1300" y="1569.75" as="sourcePoint" />
            <mxPoint x="1340" y="1569.75" as="targetPoint" />
          </mxGeometry>
        </mxCell>
        <mxCell id="rgsiSxx9pNVqM9AClZs8-170" value="" style="endArrow=classic;html=1;rounded=0;fontSize=12;startSize=8;endSize=8;curved=1;" edge="1" parent="1">
          <mxGeometry width="50" height="50" relative="1" as="geometry">
            <mxPoint x="1468" y="1569.75" as="sourcePoint" />
            <mxPoint x="1508" y="1569.75" as="targetPoint" />
          </mxGeometry>
        </mxCell>
        <mxCell id="rgsiSxx9pNVqM9AClZs8-193" value="" style="endArrow=classic;html=1;rounded=0;fontSize=12;startSize=8;endSize=8;curved=0;" edge="1" parent="1">
          <mxGeometry width="50" height="50" relative="1" as="geometry">
            <mxPoint x="377" y="1699.75" as="sourcePoint" />
            <mxPoint x="-90" y="1660" as="targetPoint" />
            <Array as="points">
              <mxPoint x="400" y="1700" />
              <mxPoint x="400" y="1790" />
              <mxPoint x="76" y="1790" />
              <mxPoint x="-90" y="1790" />
              <mxPoint x="-90" y="1720" />
            </Array>
          </mxGeometry>
        </mxCell>
        <mxCell id="rgsiSxx9pNVqM9AClZs8-195" value="" style="endArrow=none;html=1;rounded=0;fontSize=12;startSize=8;endSize=8;curved=0;" edge="1" parent="1">
          <mxGeometry width="50" height="50" relative="1" as="geometry">
            <mxPoint x="400" y="1790" as="sourcePoint" />
            <mxPoint x="1210" y="1760" as="targetPoint" />
            <Array as="points">
              <mxPoint x="1040" y="1790" />
              <mxPoint x="1040" y="1830" />
              <mxPoint x="1240" y="1830" />
              <mxPoint x="1240" y="1760" />
            </Array>
          </mxGeometry>
        </mxCell>
        <mxCell id="rgsiSxx9pNVqM9AClZs8-196" value="Вибір активу з списку" style="rounded=0;whiteSpace=wrap;html=1;" vertex="1" parent="1">
          <mxGeometry x="-160" y="1560" width="130" height="70" as="geometry" />
        </mxCell>
        <mxCell id="rgsiSxx9pNVqM9AClZs8-197" value="" style="group" vertex="1" connectable="0" parent="1">
          <mxGeometry x="1338" y="1590" width="130" height="30" as="geometry" />
        </mxCell>
        <mxCell id="rgsiSxx9pNVqM9AClZs8-198" value="" style="rounded=0;whiteSpace=wrap;html=1;" vertex="1" parent="rgsiSxx9pNVqM9AClZs8-197">
          <mxGeometry width="130" height="30" as="geometry" />
        </mxCell>
        <mxCell id="rgsiSxx9pNVqM9AClZs8-199" value="" style="endArrow=none;html=1;rounded=0;fontSize=12;startSize=8;endSize=8;curved=1;exitX=0.5;exitY=1;exitDx=0;exitDy=0;" edge="1" parent="rgsiSxx9pNVqM9AClZs8-197" source="rgsiSxx9pNVqM9AClZs8-198">
          <mxGeometry width="50" height="50" relative="1" as="geometry">
            <mxPoint x="17.333333333333332" y="50" as="sourcePoint" />
            <mxPoint x="65" as="targetPoint" />
            <Array as="points">
              <mxPoint x="65" y="20" />
            </Array>
          </mxGeometry>
        </mxCell>
        <mxCell id="rgsiSxx9pNVqM9AClZs8-200" value="13" style="text;html=1;align=center;verticalAlign=middle;whiteSpace=wrap;rounded=0;" vertex="1" parent="rgsiSxx9pNVqM9AClZs8-197">
          <mxGeometry x="-20" width="60" height="30" as="geometry" />
        </mxCell>
        <mxCell id="rgsiSxx9pNVqM9AClZs8-87" value="Перевіряється чи актив відповідає торговим умовам" style="rounded=0;whiteSpace=wrap;html=1;" vertex="1" parent="1">
          <mxGeometry x="10" y="1560" width="131" height="70" as="geometry" />
        </mxCell>
        <mxCell id="rgsiSxx9pNVqM9AClZs8-89" value="" style="group" vertex="1" connectable="0" parent="1">
          <mxGeometry x="-160" y="1630" width="131" height="30" as="geometry" />
        </mxCell>
        <mxCell id="rgsiSxx9pNVqM9AClZs8-90" value="" style="rounded=0;whiteSpace=wrap;html=1;" vertex="1" parent="rgsiSxx9pNVqM9AClZs8-89">
          <mxGeometry width="131" height="30" as="geometry" />
        </mxCell>
        <mxCell id="rgsiSxx9pNVqM9AClZs8-91" value="" style="endArrow=none;html=1;rounded=0;fontSize=12;startSize=8;endSize=8;curved=1;exitX=0.5;exitY=1;exitDx=0;exitDy=0;" edge="1" parent="rgsiSxx9pNVqM9AClZs8-89" source="rgsiSxx9pNVqM9AClZs8-90">
          <mxGeometry width="50" height="50" relative="1" as="geometry">
            <mxPoint x="17.466666666666665" y="50" as="sourcePoint" />
            <mxPoint x="65.5" as="targetPoint" />
            <Array as="points">
              <mxPoint x="65.5" y="20" />
            </Array>
          </mxGeometry>
        </mxCell>
        <mxCell id="rgsiSxx9pNVqM9AClZs8-178" value="2" style="text;html=1;align=center;verticalAlign=middle;whiteSpace=wrap;rounded=0;" vertex="1" parent="rgsiSxx9pNVqM9AClZs8-89">
          <mxGeometry x="-20" width="60" height="30" as="geometry" />
        </mxCell>
        <mxCell id="rgsiSxx9pNVqM9AClZs8-201" value="" style="endArrow=classic;html=1;rounded=0;fontSize=12;startSize=8;endSize=8;curved=1;" edge="1" parent="1">
          <mxGeometry width="50" height="50" relative="1" as="geometry">
            <mxPoint x="-200" y="1610" as="sourcePoint" />
            <mxPoint x="-160" y="1610" as="targetPoint" />
          </mxGeometry>
        </mxCell>
        <mxCell id="rgsiSxx9pNVqM9AClZs8-206" value="" style="group" vertex="1" connectable="0" parent="1">
          <mxGeometry x="-330" y="1560" width="130" height="100" as="geometry" />
        </mxCell>
        <mxCell id="rgsiSxx9pNVqM9AClZs8-202" value="" style="group" vertex="1" connectable="0" parent="rgsiSxx9pNVqM9AClZs8-206">
          <mxGeometry y="70" width="130" height="30" as="geometry" />
        </mxCell>
        <mxCell id="rgsiSxx9pNVqM9AClZs8-203" value="" style="rounded=0;whiteSpace=wrap;html=1;" vertex="1" parent="rgsiSxx9pNVqM9AClZs8-202">
          <mxGeometry width="130" height="30" as="geometry" />
        </mxCell>
        <mxCell id="rgsiSxx9pNVqM9AClZs8-204" value="" style="endArrow=none;html=1;rounded=0;fontSize=12;startSize=8;endSize=8;curved=1;exitX=0.5;exitY=1;exitDx=0;exitDy=0;" edge="1" parent="rgsiSxx9pNVqM9AClZs8-202" source="rgsiSxx9pNVqM9AClZs8-203">
          <mxGeometry width="50" height="50" relative="1" as="geometry">
            <mxPoint x="17.333333333333332" y="50" as="sourcePoint" />
            <mxPoint x="65" as="targetPoint" />
            <Array as="points">
              <mxPoint x="65" y="20" />
            </Array>
          </mxGeometry>
        </mxCell>
        <mxCell id="rgsiSxx9pNVqM9AClZs8-205" value="1" style="text;html=1;align=center;verticalAlign=middle;whiteSpace=wrap;rounded=0;" vertex="1" parent="rgsiSxx9pNVqM9AClZs8-202">
          <mxGeometry x="-20" width="60" height="30" as="geometry" />
        </mxCell>
        <mxCell id="rgsiSxx9pNVqM9AClZs8-88" value="Система отримує рейтинг активів та аналітичні висновки з А2" style="rounded=0;whiteSpace=wrap;html=1;" vertex="1" parent="rgsiSxx9pNVqM9AClZs8-206">
          <mxGeometry width="130" height="70" as="geometry" />
        </mxCell>
        <mxCell id="rgsiSxx9pNVqM9AClZs8-72" value="Відповідає (дохідність &amp;gt; 10%, позитивний фон новин, низький ризик, тощо)" style="rounded=0;whiteSpace=wrap;html=1;" vertex="1" parent="1">
          <mxGeometry x="249" y="1510" width="128" height="70" as="geometry" />
        </mxCell>
        <mxCell id="rgsiSxx9pNVqM9AClZs8-100" value="" style="group" vertex="1" connectable="0" parent="1">
          <mxGeometry x="10" y="1630" width="128" height="30" as="geometry" />
        </mxCell>
        <mxCell id="rgsiSxx9pNVqM9AClZs8-101" value="" style="rounded=0;whiteSpace=wrap;html=1;" vertex="1" parent="rgsiSxx9pNVqM9AClZs8-100">
          <mxGeometry width="128" height="30" as="geometry" />
        </mxCell>
        <mxCell id="rgsiSxx9pNVqM9AClZs8-102" value="" style="endArrow=none;html=1;rounded=0;fontSize=12;startSize=8;endSize=8;curved=1;exitX=0.5;exitY=1;exitDx=0;exitDy=0;" edge="1" parent="rgsiSxx9pNVqM9AClZs8-100" source="rgsiSxx9pNVqM9AClZs8-101">
          <mxGeometry width="50" height="50" relative="1" as="geometry">
            <mxPoint x="17.066666666666666" y="50" as="sourcePoint" />
            <mxPoint x="64" as="targetPoint" />
            <Array as="points">
              <mxPoint x="64" y="20" />
            </Array>
          </mxGeometry>
        </mxCell>
        <mxCell id="rgsiSxx9pNVqM9AClZs8-180" value="3" style="text;html=1;align=center;verticalAlign=middle;whiteSpace=wrap;rounded=0;" vertex="1" parent="rgsiSxx9pNVqM9AClZs8-100">
          <mxGeometry x="-19" width="60" height="30" as="geometry" />
        </mxCell>
        <mxCell id="rgsiSxx9pNVqM9AClZs8-74" value="Застосування торгової стратегії" style="rounded=0;whiteSpace=wrap;html=1;" vertex="1" parent="1">
          <mxGeometry x="428" y="1580" width="128" height="70" as="geometry" />
        </mxCell>
        <mxCell id="rgsiSxx9pNVqM9AClZs8-104" value="" style="group" vertex="1" connectable="0" parent="1">
          <mxGeometry x="250" y="1580" width="128" height="30" as="geometry" />
        </mxCell>
        <mxCell id="rgsiSxx9pNVqM9AClZs8-105" value="" style="rounded=0;whiteSpace=wrap;html=1;" vertex="1" parent="rgsiSxx9pNVqM9AClZs8-104">
          <mxGeometry width="128" height="30" as="geometry" />
        </mxCell>
        <mxCell id="rgsiSxx9pNVqM9AClZs8-106" value="" style="endArrow=none;html=1;rounded=0;fontSize=12;startSize=8;endSize=8;curved=1;exitX=0.5;exitY=1;exitDx=0;exitDy=0;" edge="1" parent="rgsiSxx9pNVqM9AClZs8-104" source="rgsiSxx9pNVqM9AClZs8-105">
          <mxGeometry width="50" height="50" relative="1" as="geometry">
            <mxPoint x="17.066666666666666" y="50" as="sourcePoint" />
            <mxPoint x="64" as="targetPoint" />
            <Array as="points">
              <mxPoint x="64" y="20" />
            </Array>
          </mxGeometry>
        </mxCell>
        <mxCell id="rgsiSxx9pNVqM9AClZs8-184" value="5" style="text;html=1;align=center;verticalAlign=middle;whiteSpace=wrap;rounded=0;" vertex="1" parent="rgsiSxx9pNVqM9AClZs8-104">
          <mxGeometry x="-18" width="60" height="30" as="geometry" />
        </mxCell>
        <mxCell id="rgsiSxx9pNVqM9AClZs8-75" value="Автоматичне інвестування дозволене" style="rounded=0;whiteSpace=wrap;html=1;" vertex="1" parent="1">
          <mxGeometry x="670" y="1510" width="128" height="70" as="geometry" />
        </mxCell>
        <mxCell id="rgsiSxx9pNVqM9AClZs8-120" value="" style="group" vertex="1" connectable="0" parent="1">
          <mxGeometry x="430" y="1650" width="128" height="30" as="geometry" />
        </mxCell>
        <mxCell id="rgsiSxx9pNVqM9AClZs8-121" value="" style="rounded=0;whiteSpace=wrap;html=1;" vertex="1" parent="rgsiSxx9pNVqM9AClZs8-120">
          <mxGeometry width="128" height="30" as="geometry" />
        </mxCell>
        <mxCell id="rgsiSxx9pNVqM9AClZs8-122" value="" style="endArrow=none;html=1;rounded=0;fontSize=12;startSize=8;endSize=8;curved=1;exitX=0.5;exitY=1;exitDx=0;exitDy=0;" edge="1" parent="rgsiSxx9pNVqM9AClZs8-120" source="rgsiSxx9pNVqM9AClZs8-121">
          <mxGeometry width="50" height="50" relative="1" as="geometry">
            <mxPoint x="17.066666666666666" y="50" as="sourcePoint" />
            <mxPoint x="64" as="targetPoint" />
            <Array as="points">
              <mxPoint x="64" y="20" />
            </Array>
          </mxGeometry>
        </mxCell>
        <mxCell id="rgsiSxx9pNVqM9AClZs8-183" value="6" style="text;html=1;align=center;verticalAlign=middle;whiteSpace=wrap;rounded=0;" vertex="1" parent="rgsiSxx9pNVqM9AClZs8-120">
          <mxGeometry x="-20" width="60" height="30" as="geometry" />
        </mxCell>
        <mxCell id="rgsiSxx9pNVqM9AClZs8-77" value="Автоматичне ухвалення рішень" style="rounded=0;whiteSpace=wrap;html=1;" vertex="1" parent="1">
          <mxGeometry x="840" y="1510" width="128" height="70" as="geometry" />
        </mxCell>
        <mxCell id="rgsiSxx9pNVqM9AClZs8-114" value="" style="group" vertex="1" connectable="0" parent="1">
          <mxGeometry x="670" y="1580" width="128" height="30" as="geometry" />
        </mxCell>
        <mxCell id="rgsiSxx9pNVqM9AClZs8-115" value="" style="rounded=0;whiteSpace=wrap;html=1;" vertex="1" parent="rgsiSxx9pNVqM9AClZs8-114">
          <mxGeometry width="128" height="30" as="geometry" />
        </mxCell>
        <mxCell id="rgsiSxx9pNVqM9AClZs8-116" value="" style="endArrow=none;html=1;rounded=0;fontSize=12;startSize=8;endSize=8;curved=1;exitX=0.5;exitY=1;exitDx=0;exitDy=0;" edge="1" parent="rgsiSxx9pNVqM9AClZs8-114" source="rgsiSxx9pNVqM9AClZs8-115">
          <mxGeometry width="50" height="50" relative="1" as="geometry">
            <mxPoint x="17.066666666666666" y="50" as="sourcePoint" />
            <mxPoint x="64" as="targetPoint" />
            <Array as="points">
              <mxPoint x="64" y="20" />
            </Array>
          </mxGeometry>
        </mxCell>
        <mxCell id="rgsiSxx9pNVqM9AClZs8-187" value="8" style="text;html=1;align=center;verticalAlign=middle;whiteSpace=wrap;rounded=0;" vertex="1" parent="rgsiSxx9pNVqM9AClZs8-114">
          <mxGeometry x="-20" width="60" height="30" as="geometry" />
        </mxCell>
        <mxCell id="rgsiSxx9pNVqM9AClZs8-81" value="Купівля або продаж активів" style="rounded=0;whiteSpace=wrap;html=1;" vertex="1" parent="1">
          <mxGeometry x="1340" y="1520" width="128" height="70" as="geometry" />
        </mxCell>
        <mxCell id="rgsiSxx9pNVqM9AClZs8-133" value="" style="group" vertex="1" connectable="0" parent="1">
          <mxGeometry x="840" y="1580" width="128" height="30" as="geometry" />
        </mxCell>
        <mxCell id="rgsiSxx9pNVqM9AClZs8-134" value="" style="rounded=0;whiteSpace=wrap;html=1;" vertex="1" parent="rgsiSxx9pNVqM9AClZs8-133">
          <mxGeometry width="128" height="30" as="geometry" />
        </mxCell>
        <mxCell id="rgsiSxx9pNVqM9AClZs8-135" value="" style="endArrow=none;html=1;rounded=0;fontSize=12;startSize=8;endSize=8;curved=1;exitX=0.5;exitY=1;exitDx=0;exitDy=0;" edge="1" parent="rgsiSxx9pNVqM9AClZs8-133" source="rgsiSxx9pNVqM9AClZs8-134">
          <mxGeometry width="50" height="50" relative="1" as="geometry">
            <mxPoint x="17.066666666666666" y="50" as="sourcePoint" />
            <mxPoint x="64" as="targetPoint" />
            <Array as="points">
              <mxPoint x="64" y="20" />
            </Array>
          </mxGeometry>
        </mxCell>
        <mxCell id="rgsiSxx9pNVqM9AClZs8-190" value="12" style="text;html=1;align=center;verticalAlign=middle;whiteSpace=wrap;rounded=0;" vertex="1" parent="rgsiSxx9pNVqM9AClZs8-133">
          <mxGeometry x="-20" width="60" height="30" as="geometry" />
        </mxCell>
        <mxCell id="rgsiSxx9pNVqM9AClZs8-82" value="Передача даних до А3" style="rounded=0;whiteSpace=wrap;html=1;container=0;" vertex="1" parent="1">
          <mxGeometry x="1510" y="1520" width="128" height="70" as="geometry" />
        </mxCell>
        <mxCell id="rgsiSxx9pNVqM9AClZs8-130" value="" style="rounded=0;whiteSpace=wrap;html=1;container=0;" vertex="1" parent="1">
          <mxGeometry x="1510" y="1590" width="128" height="30" as="geometry" />
        </mxCell>
        <mxCell id="rgsiSxx9pNVqM9AClZs8-131" value="" style="endArrow=none;html=1;rounded=0;fontSize=12;startSize=8;endSize=8;curved=1;exitX=0.5;exitY=1;exitDx=0;exitDy=0;" edge="1" parent="1" source="rgsiSxx9pNVqM9AClZs8-130">
          <mxGeometry width="50" height="50" relative="1" as="geometry">
            <mxPoint x="1527.0666666666666" y="1640" as="sourcePoint" />
            <mxPoint x="1574" y="1590" as="targetPoint" />
            <Array as="points">
              <mxPoint x="1574" y="1610" />
            </Array>
          </mxGeometry>
        </mxCell>
        <mxCell id="rgsiSxx9pNVqM9AClZs8-182" value="14" style="text;html=1;align=center;verticalAlign=middle;whiteSpace=wrap;rounded=0;" vertex="1" parent="1">
          <mxGeometry x="1490" y="1590" width="60" height="30" as="geometry" />
        </mxCell>
      </root>
    </mxGraphModel>
  </diagram>
</mxfile>
